<svg width="32" height="32" viewBox="0 0 32 32" fill="none" xmlns="http://www.w3.org/2000/svg">
<path fill-rule="evenodd" clip-rule="evenodd" d="M1.33429 3.78465C1.33429 3.1347 1.59248 2.51136 2.05207 2.05177C2.51166 1.59218 3.135 1.33399 3.78496 1.33399H28.2143C28.5364 1.33346 28.8554 1.39647 29.1531 1.51941C29.4509 1.64235 29.7214 1.8228 29.9493 2.05044C30.1772 2.27807 30.3579 2.54842 30.4812 2.846C30.6044 3.14358 30.6678 3.46255 30.6676 3.78465V28.214C30.668 28.5361 30.6048 28.8552 30.4817 29.1529C30.3586 29.4507 30.1781 29.7212 29.9503 29.9491C29.7226 30.1769 29.4521 30.3577 29.1545 30.4809C28.8568 30.6042 28.5378 30.6675 28.2156 30.6673H3.78496C3.46302 30.6673 3.14423 30.6039 2.84682 30.4806C2.5494 30.3574 2.27918 30.1768 2.0516 29.9491C1.82402 29.7214 1.64353 29.451 1.52045 29.1536C1.39737 28.8561 1.33411 28.5373 1.33429 28.2153V3.78465ZM12.945 12.518H16.917V14.5127C17.4903 13.366 18.957 12.334 21.161 12.334C25.3863 12.334 26.3876 14.618 26.3876 18.8087V26.5713H22.1116V19.7633C22.1116 17.3767 21.5383 16.03 20.0823 16.03C18.0623 16.03 17.2223 17.482 17.2223 19.7633V26.5713H12.945V12.518ZM5.61162 26.3887H9.88896V12.334H5.61162V26.3873V26.3887ZM10.501 7.74999C10.509 8.11622 10.4439 8.48037 10.3093 8.82107C10.1747 9.16178 9.97342 9.47217 9.71727 9.73403C9.46111 9.99589 9.15522 10.204 8.81756 10.346C8.47991 10.488 8.11728 10.5612 7.75096 10.5612C7.38464 10.5612 7.02201 10.488 6.68435 10.346C6.34669 10.204 6.04081 9.99589 5.78465 9.73403C5.52849 9.47217 5.32721 9.16178 5.19264 8.82107C5.05806 8.48037 4.99289 8.11622 5.00096 7.74999C5.01679 7.03113 5.31347 6.34704 5.82747 5.84424C6.34147 5.34143 7.03192 5.05988 7.75096 5.05988C8.46999 5.05988 9.16044 5.34143 9.67444 5.84424C10.1884 6.34704 10.4851 7.03113 10.501 7.74999Z" fill="#F1FDEB"/>
</svg>
