<svg width="32" height="32" viewBox="0 0 32 32" fill="none" xmlns="http://www.w3.org/2000/svg">
<rect width="32" height="32" fill="#B9B0BD"/>
<g id="Homepage Page" clip-path="url(#clip0_136_15)">
<rect width="1440" height="4051" transform="translate(-99 -3763)" fill="white"/>
<rect id="Rectangle 3810" x="-99" y="-294" width="1440" height="582" fill="#1A1A1A"/>
<g id="Group 7975">
<g id="Frame 2144">
<g id="Group 7974">
<g id="Frame 1973">
<g id="Group 150">
<g id="brandico:facebook-rect" clip-path="url(#clip1_136_15)">
<path id="Vector" d="M5.84301 0C2.60624 0 0 2.60624 0 5.84301V26.157C0 29.3938 2.60624 32 5.84301 32H16.853V19.49H13.545V14.986H16.853V11.138C16.853 8.11482 18.8076 5.33901 23.31 5.33901C25.133 5.33901 26.481 5.51402 26.481 5.51402L26.375 9.72003C26.375 9.72003 25.0002 9.70704 23.5 9.70704C21.8764 9.70704 21.616 10.4551 21.616 11.6971V14.986H26.504L26.291 19.49H21.616V32.0001H26.157C29.3938 32.0001 32 29.3938 32 26.1571V5.84304C32 2.60627 29.3938 3.2e-05 26.157 3.2e-05L5.84301 0Z" fill="#F1FDEB"/>
</g>
</g>
</g>
</g>
</g>
</g>
</g>
<defs>
<clipPath id="clip0_136_15">
<rect width="1440" height="4051" fill="white" transform="translate(-99 -3763)"/>
</clipPath>
<clipPath id="clip1_136_15">
<rect width="32" height="32" fill="white"/>
</clipPath>
</defs>
</svg>
