<svg width="100" height="100" viewBox="0 0 100 100" fill="none" xmlns="http://www.w3.org/2000/svg">
<path d="M74.9997 54.167V45.8337H91.6663V54.167H74.9997ZM79.9997 83.3337L66.6663 73.3337L71.6663 66.667L84.9997 76.667L79.9997 83.3337ZM71.6663 33.3337L66.6663 26.667L79.9997 16.667L84.9997 23.3337L71.6663 33.3337ZM20.833 79.167V62.5003H16.6663C14.3747 62.5003 12.4129 61.6844 10.7809 60.0524C9.14898 58.4205 8.33301 56.4587 8.33301 54.167V45.8337C8.33301 43.542 9.14898 41.5802 10.7809 39.9482C12.4129 38.3163 14.3747 37.5003 16.6663 37.5003H33.333L54.1663 25.0003V75.0003L33.333 62.5003H29.1663V79.167H20.833ZM45.833 60.2087V39.792L35.6247 45.8337H16.6663V54.167H35.6247L45.833 60.2087ZM58.333 63.9587V36.042C60.208 37.7087 61.7184 39.7399 62.8643 42.1357C64.0101 44.5316 64.583 47.1531 64.583 50.0003C64.583 52.8475 64.0101 55.4691 62.8643 57.8649C61.7184 60.2607 60.208 62.292 58.333 63.9587Z" fill="#38A926"/>
</svg>
