<svg width="40" height="40" viewBox="0 0 40 40" fill="none" xmlns="http://www.w3.org/2000/svg">
<path d="M6.66683 21.6663V24.9997H33.3335V21.6663H6.66683ZM6.66683 3.33301H33.3335C34.2502 3.33301 35.0349 3.6594 35.6877 4.31217C36.3404 4.96495 36.6668 5.74967 36.6668 6.66634V24.9997C36.6668 25.9163 36.3404 26.7011 35.6877 27.3538C35.0349 28.0066 34.2502 28.333 33.3335 28.333H26.6668V36.6663L20.0002 33.333L13.3335 36.6663V28.333H6.66683C5.75016 28.333 4.96544 28.0066 4.31266 27.3538C3.65988 26.7011 3.3335 25.9163 3.3335 24.9997V6.66634C3.3335 5.74967 3.65988 4.96495 4.31266 4.31217C4.96544 3.6594 5.75016 3.33301 6.66683 3.33301ZM6.66683 16.6663H33.3335V6.66634H6.66683V16.6663Z" fill="black"/>
</svg>
