<svg width="100" height="100" viewBox="0 0 100 100" fill="none" xmlns="http://www.w3.org/2000/svg">
<path d="M8.33301 91.6667L29.1663 33.3333L66.6663 70.8333L8.33301 91.6667ZM22.083 77.9167L51.458 67.5L32.4997 48.5417L22.083 77.9167ZM60.6247 52.2917L56.2497 47.9167L79.583 24.5833C81.8052 22.3611 84.4788 21.25 87.6038 21.25C90.7288 21.25 93.4025 22.3611 95.6247 24.5833L98.1247 27.0833L93.7497 31.4583L91.2497 28.9583C90.2775 27.9861 89.0622 27.5 87.6038 27.5C86.1455 27.5 84.9302 27.9861 83.958 28.9583L60.6247 52.2917ZM43.958 35.625L39.583 31.25L42.083 28.75C43.0552 27.7778 43.5413 26.5972 43.5413 25.2083C43.5413 23.8194 43.0552 22.6389 42.083 21.6667L39.3747 18.9583L43.7497 14.5833L46.458 17.2917C48.6802 19.5139 49.7913 22.1528 49.7913 25.2083C49.7913 28.2639 48.6802 30.9028 46.458 33.125L43.958 35.625ZM52.2913 43.9583L47.9163 39.5833L62.9163 24.5833C63.8886 23.6111 64.3747 22.3958 64.3747 20.9375C64.3747 19.4792 63.8886 18.2639 62.9163 17.2917L56.2497 10.625L60.6247 6.25L67.2913 12.9167C69.5136 15.1389 70.6247 17.8125 70.6247 20.9375C70.6247 24.0625 69.5136 26.7361 67.2913 28.9583L52.2913 43.9583ZM68.958 60.625L64.583 56.25L71.2497 49.5833C73.4719 47.3611 76.1455 46.25 79.2705 46.25C82.3955 46.25 85.0691 47.3611 87.2913 49.5833L93.958 56.25L89.583 60.625L82.9163 53.9583C81.9441 52.9861 80.7288 52.5 79.2705 52.5C77.8122 52.5 76.5969 52.9861 75.6247 53.9583L68.958 60.625Z" fill="#38A926"/>
</svg>
