<svg width="40" height="40" viewBox="0 0 40 40" fill="none" xmlns="http://www.w3.org/2000/svg">
<path d="M9.99967 23.333H23.333V19.9997H9.99967V23.333ZM9.99967 18.333H29.9997V14.9997H9.99967V18.333ZM9.99967 13.333H29.9997V9.99967H9.99967V13.333ZM3.33301 36.6663V6.66634C3.33301 5.74967 3.6594 4.96495 4.31217 4.31217C4.96495 3.6594 5.74967 3.33301 6.66634 3.33301H33.333C34.2497 3.33301 35.0344 3.6594 35.6872 4.31217C36.34 4.96495 36.6663 5.74967 36.6663 6.66634V26.6663C36.6663 27.583 36.34 28.3677 35.6872 29.0205C35.0344 29.6733 34.2497 29.9997 33.333 29.9997H9.99967L3.33301 36.6663ZM8.58301 26.6663H33.333V6.66634H6.66634V28.5413L8.58301 26.6663Z" fill="#38A926"/>
</svg>
