<svg width="32" height="32" viewBox="0 0 32 32" fill="none" xmlns="http://www.w3.org/2000/svg">
<path d="M17.3333 10.6667C18.3942 10.6667 19.4116 11.0881 20.1618 11.8382C20.9119 12.5884 21.3333 13.6058 21.3333 14.6667C21.3333 15.0203 21.4738 15.3594 21.7239 15.6095C21.9739 15.8595 22.313 16 22.6667 16C23.0203 16 23.3594 15.8595 23.6095 15.6095C23.8595 15.3594 24 15.0203 24 14.6667C24 12.8986 23.2976 11.2029 22.0474 9.95262C20.7971 8.70238 19.1014 8 17.3333 8C16.9797 8 16.6406 8.14048 16.3905 8.39052C16.1405 8.64057 16 8.97971 16 9.33333C16 9.68696 16.1405 10.0261 16.3905 10.2761C16.6406 10.5262 16.9797 10.6667 17.3333 10.6667Z" fill="#F1FDEB"/>
<path d="M17.3334 5.33268C19.8087 5.33268 22.1827 6.31601 23.933 8.06635C25.6834 9.81669 26.6667 12.1907 26.6667 14.666C26.6667 15.0196 26.8072 15.3588 27.0572 15.6088C27.3073 15.8589 27.6464 15.9993 28 15.9993C28.3536 15.9993 28.6928 15.8589 28.9428 15.6088C29.1929 15.3588 29.3334 15.0196 29.3334 14.666C29.3334 11.4834 28.0691 8.43117 25.8186 6.18073C23.5682 3.9303 20.516 2.66602 17.3334 2.66602C16.9797 2.66602 16.6406 2.80649 16.3905 3.05654C16.1405 3.30659 16 3.64573 16 3.99935C16 4.35297 16.1405 4.69211 16.3905 4.94216C16.6406 5.19221 16.9797 5.33268 17.3334 5.33268ZM29 21.2127C28.9267 20.9986 28.8001 20.8068 28.6321 20.6552C28.4642 20.5035 28.2604 20.3972 28.04 20.346L20.04 18.5193C19.8229 18.4701 19.5968 18.476 19.3826 18.5366C19.1683 18.5972 18.9726 18.7104 18.8134 18.866C18.6267 19.0393 18.6134 19.0527 17.7467 20.706C14.871 19.3809 12.5667 17.0672 11.2534 14.186C12.9467 13.3327 12.96 13.3327 13.1334 13.1327C13.289 12.9734 13.4022 12.7777 13.4628 12.5635C13.5233 12.3492 13.5293 12.1232 13.48 11.906L11.6534 3.99935C11.6022 3.77894 11.4958 3.57518 11.3442 3.40723C11.1926 3.23929 11.0007 3.11269 10.7867 3.03935C10.4753 2.92813 10.1538 2.84775 9.82669 2.79935C9.48969 2.72121 9.1458 2.67655 8.80002 2.66602C7.17336 2.66602 5.61332 3.3122 4.4631 4.46243C3.31288 5.61265 2.66669 7.17269 2.66669 8.79935C2.67374 14.243 4.83934 19.4616 8.68855 23.3108C12.5378 27.16 17.7564 29.3256 23.2 29.3327C24.0055 29.3327 24.803 29.174 25.5471 28.8658C26.2913 28.5576 26.9674 28.1058 27.5369 27.5363C28.1065 26.9667 28.5583 26.2906 28.8665 25.5465C29.1747 24.8023 29.3334 24.0048 29.3334 23.1993C29.3338 22.86 29.307 22.5211 29.2534 22.186C29.1973 21.8548 29.1126 21.5292 29 21.2127Z" fill="#F1FDEB"/>
</svg>
