<svg width="100" height="100" viewBox="0 0 100 100" fill="none" xmlns="http://www.w3.org/2000/svg">
<path d="M29.1663 74.9997C27.9858 74.9997 26.9962 74.6004 26.1976 73.8018C25.399 73.0032 24.9997 72.0136 24.9997 70.833V62.4997H79.1663V24.9997H87.4997C88.6802 24.9997 89.6698 25.399 90.4684 26.1976C91.267 26.9962 91.6663 27.9858 91.6663 29.1663V91.6663L74.9997 74.9997H29.1663ZM8.33301 70.833V12.4997C8.33301 11.3191 8.73231 10.3295 9.53092 9.53092C10.3295 8.73231 11.3191 8.33301 12.4997 8.33301H66.6663C67.8469 8.33301 68.8365 8.73231 69.6351 9.53092C70.4337 10.3295 70.833 11.3191 70.833 12.4997V49.9997C70.833 51.1802 70.4337 52.1698 69.6351 52.9684C68.8365 53.767 67.8469 54.1663 66.6663 54.1663H24.9997L8.33301 70.833ZM62.4997 45.833V16.6663H16.6663V45.833H62.4997Z" fill="#38A926"/>
</svg>
