<svg width="101" height="100" viewBox="0 0 101 100" fill="none" xmlns="http://www.w3.org/2000/svg">
<path d="M79.0417 91.5628C78.4862 91.5628 77.9653 91.476 77.4792 91.3024C76.9931 91.1288 76.5417 90.8337 76.125 90.417L54.875 69.167C54.4584 68.7503 54.1632 68.2989 53.9896 67.8128C53.816 67.3267 53.7292 66.8059 53.7292 66.2503C53.7292 65.6948 53.816 65.1739 53.9896 64.6878C54.1632 64.2017 54.4584 63.7503 54.875 63.3337L63.7292 54.4795C64.1459 54.0628 64.5973 53.7677 65.0834 53.5941C65.5695 53.4205 66.0903 53.3337 66.6459 53.3337C67.2014 53.3337 67.7223 53.4205 68.2084 53.5941C68.6945 53.7677 69.1459 54.0628 69.5625 54.4795L90.8125 75.7295C91.2292 76.1462 91.5243 76.5975 91.698 77.0837C91.8716 77.5698 91.9584 78.0906 91.9584 78.6462C91.9584 79.2017 91.8716 79.7225 91.698 80.2087C91.5243 80.6948 91.2292 81.1462 90.8125 81.5628L81.9584 90.417C81.5417 90.8337 81.0903 91.1288 80.6042 91.3024C80.1181 91.476 79.5973 91.5628 79.0417 91.5628ZM79.0417 81.667L82.0625 78.6462L66.75 63.3337L63.7292 66.3545L79.0417 81.667ZM21.8542 91.667C21.2987 91.667 20.7605 91.5628 20.2396 91.3545C19.7188 91.1462 19.25 90.8337 18.8334 90.417L10.0834 81.667C9.66671 81.2503 9.35421 80.7816 9.14587 80.2607C8.93754 79.7399 8.83337 79.2017 8.83337 78.6462C8.83337 78.0906 8.93754 77.5698 9.14587 77.0837C9.35421 76.5975 9.66671 76.1462 10.0834 75.7295L32.1667 53.6462H41.0209L44.5625 50.1045L27.375 32.917H21.4375L8.83337 20.3128L20.6042 8.54199L33.2084 21.1462V27.0837L50.3959 44.2712L62.4792 32.1878L58 27.7087L63.8334 21.8753H52.0625L49.1459 18.9587L63.9375 4.16699L66.8542 7.08366V18.8545L72.6875 13.0212L87.4792 27.8128C88.6598 28.9934 89.5625 30.3302 90.1875 31.8232C90.8125 33.3163 91.125 34.8962 91.125 36.5628C91.125 38.2295 90.8125 39.8267 90.1875 41.3545C89.5625 42.8823 88.6598 44.2364 87.4792 45.417L78.625 36.5628L72.7917 42.3962L68.4167 38.0212L46.8542 59.5837V68.3337L24.7709 90.417C24.3542 90.8337 23.9028 91.1462 23.4167 91.3545C22.9306 91.5628 22.4098 91.667 21.8542 91.667ZM21.8542 81.667L39.5625 63.9587V60.9378H36.5417L18.8334 78.6462L21.8542 81.667ZM21.8542 81.667L18.8334 78.6462L20.3959 80.1045L21.8542 81.667Z" fill="#38A926"/>
</svg>
