<svg width="40" height="40" viewBox="0 0 40 40" fill="none" xmlns="http://www.w3.org/2000/svg">
<mask id="mask0_201_291" style="mask-type:luminance" maskUnits="userSpaceOnUse" x="1" y="1" width="38" height="38">
<path d="M30.5718 12.6422C31.6345 14.1644 32.3537 15.8995 32.6793 17.7272H36.6668V22.2722H32.6793C32.3537 24.0999 31.6345 25.8349 30.5718 27.3572L33.3927 30.178L30.1785 33.3922L27.3577 30.5713C25.8354 31.6341 24.1004 32.3532 22.2727 32.6788V36.6663H17.7277V32.6788C15.9 32.3532 14.1649 31.6341 12.6427 30.5713L9.82183 33.3922L6.60766 30.178L9.4285 27.3572C8.36578 25.8349 7.64667 24.0999 7.321 22.2722H3.3335V17.7272H7.321C7.64667 15.8995 8.36578 14.1644 9.4285 12.6422L6.60766 9.82134L9.82183 6.60717L12.6427 9.42801C14.1649 8.36529 15.9 7.64618 17.7277 7.32051V3.33301H22.2727V7.32051C24.1004 7.64618 25.8354 8.36529 27.3577 9.42801L30.1785 6.60717L33.3927 9.82134L30.5718 12.6422Z" fill="white" fill-opacity="0.7" stroke="white" stroke-width="4" stroke-linejoin="round"/>
<path d="M20.0002 24.1663C21.1052 24.1663 22.165 23.7274 22.9464 22.946C23.7278 22.1646 24.1668 21.1047 24.1668 19.9997C24.1668 18.8946 23.7278 17.8348 22.9464 17.0534C22.165 16.272 21.1052 15.833 20.0002 15.833C18.8951 15.833 17.8353 16.272 17.0539 17.0534C16.2725 17.8348 15.8335 18.8946 15.8335 19.9997C15.8335 21.1047 16.2725 22.1646 17.0539 22.946C17.8353 23.7274 18.8951 24.1663 20.0002 24.1663Z" fill="white" fill-opacity="0.7" stroke="black" stroke-width="4" stroke-linejoin="round"/>
</mask>
<g mask="url(#mask0_201_291)">
<path d="M0 0H40V40H0V0Z" fill="#1A1A1A"/>
</g>
</svg>
