<svg width="40" height="40" viewBox="0 0 40 40" fill="none" xmlns="http://www.w3.org/2000/svg">
<mask id="mask0_201_518" style="mask-type:luminance" maskUnits="userSpaceOnUse" x="1" y="1" width="38" height="38">
<path d="M30.5713 12.6422C31.6341 14.1644 32.3532 15.8995 32.6788 17.7272H36.6663V22.2722H32.6788C32.3532 24.0999 31.6341 25.8349 30.5713 27.3572L33.3922 30.178L30.178 33.3922L27.3572 30.5713C25.8349 31.6341 24.0999 32.3532 22.2722 32.6788V36.6663H17.7272V32.6788C15.8995 32.3532 14.1644 31.6341 12.6422 30.5713L9.82134 33.3922L6.60717 30.178L9.42801 27.3572C8.36529 25.8349 7.64618 24.0999 7.32051 22.2722H3.33301V17.7272H7.32051C7.64618 15.8995 8.36529 14.1644 9.42801 12.6422L6.60717 9.82134L9.82134 6.60717L12.6422 9.42801C14.1644 8.36529 15.8995 7.64618 17.7272 7.32051V3.33301H22.2722V7.32051C24.0999 7.64618 25.8349 8.36529 27.3572 9.42801L30.178 6.60717L33.3922 9.82134L30.5713 12.6422Z" fill="white" stroke="white" stroke-width="4" stroke-linejoin="round"/>
<path d="M19.9997 24.1663C21.1047 24.1663 22.1646 23.7274 22.946 22.946C23.7274 22.1646 24.1663 21.1047 24.1663 19.9997C24.1663 18.8946 23.7274 17.8348 22.946 17.0534C22.1646 16.272 21.1047 15.833 19.9997 15.833C18.8946 15.833 17.8348 16.272 17.0534 17.0534C16.272 17.8348 15.833 18.8946 15.833 19.9997C15.833 21.1047 16.272 22.1646 17.0534 22.946C17.8348 23.7274 18.8946 24.1663 19.9997 24.1663Z" fill="black" stroke="black" stroke-width="4" stroke-linejoin="round"/>
</mask>
<g mask="url(#mask0_201_518)">
<path d="M0 0H40V40H0V0Z" fill="white"/>
</g>
</svg>
