<svg width="41" height="40" viewBox="0 0 41 40" fill="none" xmlns="http://www.w3.org/2000/svg">
<path d="M8.83333 35C7.91667 35 7.13194 34.6736 6.47917 34.0208C5.82639 33.3681 5.5 32.5833 5.5 31.6667V8.33333C5.5 7.41667 5.82639 6.63194 6.47917 5.97917C7.13194 5.32639 7.91667 5 8.83333 5H32.1667C33.0833 5 33.8681 5.32639 34.5208 5.97917C35.1736 6.63194 35.5 7.41667 35.5 8.33333V31.6667C35.5 32.5833 35.1736 33.3681 34.5208 34.0208C33.8681 34.6736 33.0833 35 32.1667 35H8.83333ZM8.83333 31.6667H32.1667V8.33333H8.83333V31.6667ZM10.5 28.3333H30.5L24.25 20L19.25 26.6667L15.5 21.6667L10.5 28.3333Z" fill="#38A926"/>
</svg>
