<svg width="40" height="40" viewBox="0 0 40 40" fill="none" xmlns="http://www.w3.org/2000/svg">
<path d="M13.3332 19.9997V16.6663H26.6665V19.9997H13.3332ZM13.3332 13.333V9.99967H26.6665V13.333H13.3332ZM9.99984 23.333H22.4998C23.3054 23.333 24.0554 23.5066 24.7498 23.8538C25.4443 24.2011 26.0276 24.6941 26.4998 25.333L29.9998 29.9163V6.66634H9.99984V23.333ZM9.99984 33.333H28.4165L23.8748 27.3747C23.7082 27.1525 23.5068 26.9788 23.2707 26.8538C23.0346 26.7288 22.7776 26.6663 22.4998 26.6663H9.99984V33.333ZM29.9998 36.6663H9.99984C9.08317 36.6663 8.29845 36.34 7.64567 35.6872C6.99289 35.0344 6.6665 34.2497 6.6665 33.333V6.66634C6.6665 5.74967 6.99289 4.96495 7.64567 4.31217C8.29845 3.6594 9.08317 3.33301 9.99984 3.33301H29.9998C30.9165 3.33301 31.7012 3.6594 32.354 4.31217C33.0068 4.96495 33.3332 5.74967 33.3332 6.66634V33.333C33.3332 34.2497 33.0068 35.0344 32.354 35.6872C31.7012 36.34 30.9165 36.6663 29.9998 36.6663Z" fill="black"/>
</svg>
