<svg width="24" height="22" viewBox="0 0 24 22" fill="none" xmlns="http://www.w3.org/2000/svg">
<path d="M24 3.00517V19.9998C24 21.1044 23.268 21.9988 22.364 21.9988H18.545V10.6698L12 16.6691L5.455 10.6698V22H1.636C1.42107 22 1.20825 21.9483 1.0097 21.8477C0.811145 21.7472 0.63075 21.5998 0.47882 21.4141C0.32689 21.2283 0.206404 21.0078 0.124246 20.7652C0.0420884 20.5225 -0.000131068 20.2624 3.05652e-07 19.9998V3.00517C3.05652e-07 0.533374 2.309 -0.877859 3.927 0.605463L5.455 2.00692L12 8.00375L18.545 2.00448L20.073 0.605463C21.69 -0.876637 24 0.533374 24 3.00517Z" fill="#F1FDEB"/>
</svg>
