<svg width="101" height="100" viewBox="0 0 101 100" fill="none" xmlns="http://www.w3.org/2000/svg">
<path d="M24.875 49.9997L23.625 43.7497C22.7917 43.4025 22.0105 43.0379 21.2813 42.6559C20.5521 42.274 19.8056 41.8052 19.0417 41.2497L13 43.1247L8.83337 36.0413L13.625 31.8747C13.4862 30.9719 13.4167 30.0691 13.4167 29.1663C13.4167 28.2636 13.4862 27.3608 13.625 26.458L8.83337 22.2913L13 15.208L19.0417 17.083C19.8056 16.5275 20.5521 16.0587 21.2813 15.6768C22.0105 15.2948 22.7917 14.9302 23.625 14.583L24.875 8.33301H33.2084L34.4584 14.583C35.2917 14.9302 36.073 15.2948 36.8021 15.6768C37.5313 16.0587 38.2778 16.5275 39.0417 17.083L45.0834 15.208L49.25 22.2913L44.4584 26.458C44.5973 27.3608 44.6667 28.2636 44.6667 29.1663C44.6667 30.0691 44.5973 30.9719 44.4584 31.8747L49.25 36.0413L45.0834 43.1247L39.0417 41.2497C38.2778 41.8052 37.5313 42.274 36.8021 42.6559C36.073 43.0379 35.2917 43.4025 34.4584 43.7497L33.2084 49.9997H24.875ZM29.0417 37.4997C31.3334 37.4997 33.2952 36.6837 34.9271 35.0518C36.5591 33.4198 37.375 31.458 37.375 29.1663C37.375 26.8747 36.5591 24.9129 34.9271 23.2809C33.2952 21.649 31.3334 20.833 29.0417 20.833C26.75 20.833 24.7882 21.649 23.1563 23.2809C21.5243 24.9129 20.7084 26.8747 20.7084 29.1663C20.7084 31.458 21.5243 33.4198 23.1563 35.0518C24.7882 36.6837 26.75 37.4997 29.0417 37.4997ZM62.1667 95.833L60.2917 87.083C59.1112 86.6663 58.0174 86.1629 57.0105 85.5726C56.0035 84.9823 55.0139 84.3052 54.0417 83.5413L45.7084 86.2497L39.875 76.2497L46.5417 70.4163C46.4028 69.1663 46.3334 67.9163 46.3334 66.6663C46.3334 65.4163 46.4028 64.1663 46.5417 62.9163L39.875 57.083L45.7084 47.083L54.0417 49.7913C55.0139 49.0275 56.0035 48.3504 57.0105 47.7601C58.0174 47.1698 59.1112 46.6663 60.2917 46.2497L62.1667 37.4997H73.8334L75.7084 46.2497C76.8889 46.6663 77.9827 47.1698 78.9896 47.7601C79.9966 48.3504 80.9862 49.0275 81.9584 49.7913L90.2917 47.083L96.125 57.083L89.4584 62.9163C89.5973 64.1663 89.6667 65.4163 89.6667 66.6663C89.6667 67.9163 89.5973 69.1663 89.4584 70.4163L96.125 76.2497L90.2917 86.2497L81.9584 83.5413C80.9862 84.3052 79.9966 84.9823 78.9896 85.5726C77.9827 86.1629 76.8889 86.6663 75.7084 87.083L73.8334 95.833H62.1667ZM68 79.1663C71.4723 79.1663 74.4237 77.9511 76.8542 75.5205C79.2848 73.09 80.5 70.1386 80.5 66.6663C80.5 63.1941 79.2848 60.2427 76.8542 57.8122C74.4237 55.3816 71.4723 54.1663 68 54.1663C64.5278 54.1663 61.5764 55.3816 59.1459 57.8122C56.7153 60.2427 55.5 63.1941 55.5 66.6663C55.5 70.1386 56.7153 73.09 59.1459 75.5205C61.5764 77.9511 64.5278 79.1663 68 79.1663Z" fill="#38A926"/>
</svg>
