<svg width="40" height="40" viewBox="0 0 40 40" fill="none" xmlns="http://www.w3.org/2000/svg">
<path d="M20.0003 33.3337C19.0837 33.3337 18.2989 33.0073 17.6462 32.3545C16.9934 31.7017 16.667 30.917 16.667 30.0003C16.667 29.0837 16.9934 28.2989 17.6462 27.6462C18.2989 26.9934 19.0837 26.667 20.0003 26.667C20.917 26.667 21.7017 26.9934 22.3545 27.6462C23.0073 28.2989 23.3337 29.0837 23.3337 30.0003C23.3337 30.917 23.0073 31.7017 22.3545 32.3545C21.7017 33.0073 20.917 33.3337 20.0003 33.3337ZM20.0003 23.3337C19.0837 23.3337 18.2989 23.0073 17.6462 22.3545C16.9934 21.7017 16.667 20.917 16.667 20.0003C16.667 19.0837 16.9934 18.2989 17.6462 17.6462C18.2989 16.9934 19.0837 16.667 20.0003 16.667C20.917 16.667 21.7017 16.9934 22.3545 17.6462C23.0073 18.2989 23.3337 19.0837 23.3337 20.0003C23.3337 20.917 23.0073 21.7017 22.3545 22.3545C21.7017 23.0073 20.917 23.3337 20.0003 23.3337ZM20.0003 13.3337C19.0837 13.3337 18.2989 13.0073 17.6462 12.3545C16.9934 11.7017 16.667 10.917 16.667 10.0003C16.667 9.08366 16.9934 8.29894 17.6462 7.64616C18.2989 6.99338 19.0837 6.66699 20.0003 6.66699C20.917 6.66699 21.7017 6.99338 22.3545 7.64616C23.0073 8.29894 23.3337 9.08366 23.3337 10.0003C23.3337 10.917 23.0073 11.7017 22.3545 12.3545C21.7017 13.0073 20.917 13.3337 20.0003 13.3337Z" fill="#38A926"/>
</svg>
