<svg width="40" height="40" viewBox="0 0 40 40" fill="none" xmlns="http://www.w3.org/2000/svg">
<path d="M3.33301 16.6667C3.33301 13.8889 3.95106 11.3403 5.18717 9.02083C6.42329 6.70139 8.08301 4.77778 10.1663 3.25L12.1247 5.91667C10.458 7.13889 9.13162 8.68056 8.14551 10.5417C7.1594 12.4028 6.66634 14.4444 6.66634 16.6667H3.33301ZM33.333 16.6667C33.333 14.4444 32.84 12.4028 31.8538 10.5417C30.8677 8.68056 29.5413 7.13889 27.8747 5.91667L29.833 3.25C31.9163 4.77778 33.5761 6.70139 34.8122 9.02083C36.0483 11.3403 36.6663 13.8889 36.6663 16.6667H33.333ZM6.66634 31.6667V28.3333H9.99967V16.6667C9.99967 14.3611 10.6941 12.3125 12.083 10.5208C13.4719 8.72917 15.2775 7.55556 17.4997 7V5.83333C17.4997 5.13889 17.7427 4.54861 18.2288 4.0625C18.715 3.57639 19.3052 3.33333 19.9997 3.33333C20.6941 3.33333 21.2844 3.57639 21.7705 4.0625C22.2566 4.54861 22.4997 5.13889 22.4997 5.83333V7C24.7219 7.55556 26.5275 8.72917 27.9163 10.5208C29.3052 12.3125 29.9997 14.3611 29.9997 16.6667V28.3333H33.333V31.6667H6.66634ZM19.9997 36.6667C19.083 36.6667 18.2983 36.3403 17.6455 35.6875C16.9927 35.0347 16.6663 34.25 16.6663 33.3333H23.333C23.333 34.25 23.0066 35.0347 22.3538 35.6875C21.7011 36.3403 20.9163 36.6667 19.9997 36.6667ZM13.333 28.3333H26.6663V16.6667C26.6663 14.8333 26.0136 13.2639 24.708 11.9583C23.4025 10.6528 21.833 10 19.9997 10C18.1663 10 16.5969 10.6528 15.2913 11.9583C13.9858 13.2639 13.333 14.8333 13.333 16.6667V28.3333Z" fill="#38A926"/>
</svg>
