<svg width="41" height="40" viewBox="0 0 41 40" fill="none" xmlns="http://www.w3.org/2000/svg">
<path d="M20.5 36.6663C18.1945 36.6663 16.0278 36.2288 14 35.3538C11.9723 34.4788 10.2084 33.2913 8.70837 31.7913C7.20837 30.2913 6.02087 28.5275 5.14587 26.4997C4.27087 24.4719 3.83337 22.3052 3.83337 19.9997C3.83337 17.6941 4.27087 15.5275 5.14587 13.4997C6.02087 11.4719 7.20837 9.70801 8.70837 8.20801C10.2084 6.70801 11.9723 5.52051 14 4.64551C16.0278 3.77051 18.1945 3.33301 20.5 3.33301C22.8056 3.33301 24.9723 3.77051 27 4.64551C29.0278 5.52051 30.7917 6.70801 32.2917 8.20801C33.7917 9.70801 34.9792 11.4719 35.8542 13.4997C36.7292 15.5275 37.1667 17.6941 37.1667 19.9997C37.1667 20.7497 37.125 21.4858 37.0417 22.208C36.9584 22.9302 36.8195 23.6386 36.625 24.333C36.2361 23.8886 35.7848 23.5136 35.2709 23.208C34.757 22.9025 34.1945 22.6941 33.5834 22.583C33.6667 22.1663 33.7292 21.7427 33.7709 21.3122C33.8125 20.8816 33.8334 20.4441 33.8334 19.9997C33.8334 16.2775 32.5417 13.1247 29.9584 10.5413C27.375 7.95801 24.2223 6.66634 20.5 6.66634C16.7778 6.66634 13.625 7.95801 11.0417 10.5413C8.45837 13.1247 7.16671 16.2775 7.16671 19.9997C7.16671 23.7219 8.45837 26.8747 11.0417 29.458C13.625 32.0413 16.7778 33.333 20.5 33.333C21.9167 33.333 23.2709 33.1247 24.5625 32.708C25.8542 32.2913 27.0417 31.708 28.125 30.958C28.4584 31.4302 28.8681 31.8469 29.3542 32.208C29.8403 32.5691 30.3612 32.8469 30.9167 33.0413C29.5 34.1802 27.9098 35.0691 26.1459 35.708C24.382 36.3469 22.5 36.6663 20.5 36.6663ZM32.5834 29.9997C32 29.9997 31.507 29.7983 31.1042 29.3955C30.7014 28.9927 30.5 28.4997 30.5 27.9163C30.5 27.333 30.7014 26.84 31.1042 26.4372C31.507 26.0344 32 25.833 32.5834 25.833C33.1667 25.833 33.6598 26.0344 34.0625 26.4372C34.4653 26.84 34.6667 27.333 34.6667 27.9163C34.6667 28.4997 34.4653 28.9927 34.0625 29.3955C33.6598 29.7983 33.1667 29.9997 32.5834 29.9997ZM26 27.833L18.8334 20.6663V11.6663H22.1667V19.333L28.3334 25.4997L26 27.833Z" fill="#38A926"/>
</svg>
