<svg width="40" height="40" viewBox="0 0 40 40" fill="none" xmlns="http://www.w3.org/2000/svg">
<path fill-rule="evenodd" clip-rule="evenodd" d="M33.8627 5.25009C34.076 5.37332 34.2629 5.53736 34.4128 5.73285C34.5627 5.92834 34.6725 6.15144 34.7361 6.38941C34.7998 6.62739 34.8159 6.87556 34.7835 7.11975C34.7512 7.36395 34.6711 7.59938 34.5477 7.8126L25.8677 22.8301C27.0028 24.2581 27.5786 26.0509 27.4872 27.8728C27.3958 29.6947 26.6435 31.4208 25.3712 32.7281C24.0989 34.0353 22.3937 34.8341 20.5749 34.9747C18.7562 35.1154 16.9485 34.5884 15.4903 33.4923C14.0321 32.3962 13.0233 30.8063 12.6529 29.0201C12.2825 27.2339 12.5757 25.3739 13.4778 23.7883C14.3798 22.2028 15.8289 21.0003 17.5536 20.4061C19.2783 19.8119 21.1604 19.8666 22.8477 20.5601L27.2452 12.9551C25.5612 12.1157 23.7442 11.5752 21.8752 11.3576V12.5001C21.8752 12.9974 21.6777 13.4743 21.326 13.8259C20.9744 14.1776 20.4975 14.3751 20.0002 14.3751C19.5029 14.3751 19.026 14.1776 18.6744 13.8259C18.3227 13.4743 18.1252 12.9974 18.1252 12.5001V11.3576C16.5494 11.5405 15.0089 11.9533 13.5527 12.5826L14.1252 13.5726C14.2483 13.786 14.3282 14.0216 14.3603 14.2658C14.3923 14.5101 14.376 14.7583 14.3122 14.9962C14.2483 15.2342 14.1382 15.4572 13.9882 15.6526C13.8382 15.848 13.6511 16.012 13.4377 16.1351C13.2243 16.2582 12.9887 16.3381 12.7445 16.3702C12.5002 16.4022 12.252 16.3859 12.0141 16.3221C11.7761 16.2582 11.5531 16.1481 11.3577 15.9981C11.1623 15.8481 10.9983 15.661 10.8752 15.4476L10.3052 14.4576C9.03176 15.4048 7.90395 16.5335 6.9577 17.8076L7.9477 18.3751C8.37868 18.6237 8.69323 19.0334 8.82216 19.514C8.95109 19.9945 8.88384 20.5066 8.6352 20.9376C8.51208 21.151 8.34814 21.3381 8.15274 21.4881C7.95733 21.6381 7.73429 21.7482 7.49634 21.8121C7.01577 21.941 6.50368 21.8737 6.0727 21.6251L5.0827 21.0526C4.42826 22.5677 4.00845 24.1736 3.8377 25.8151C3.78631 26.3097 3.54054 26.7637 3.15445 27.0771C2.76836 27.3905 2.27358 27.5377 1.77895 27.4863C1.28432 27.435 0.830364 27.1892 0.516943 26.8031C0.203523 26.417 0.0563137 25.9222 0.107699 25.4276C0.444092 22.1943 1.56356 19.0916 3.36918 16.3884C5.1748 13.6852 7.61213 11.4629 10.4701 9.91381C13.3281 8.36478 16.5206 7.53575 19.7712 7.49851C23.0218 7.46127 26.2325 8.21694 29.1252 9.7001L31.3002 5.9351C31.4234 5.7218 31.5875 5.53488 31.783 5.38501C31.9784 5.23514 32.2015 5.12526 32.4395 5.06165C32.6775 4.99804 32.9257 4.98194 33.1699 5.01427C33.4141 5.04661 33.6495 5.12674 33.8627 5.25009ZM33.5952 15.3676C33.9983 15.0766 34.5006 14.9576 34.9914 15.0368C35.4823 15.1161 35.9216 15.387 36.2127 15.7901C38.8143 19.3918 40.1425 23.7573 39.9877 28.1976C39.9819 28.4456 39.927 28.6899 39.8262 28.9165C39.7253 29.1431 39.5805 29.3475 39.4001 29.5177C39.2197 29.6879 39.0073 29.8207 38.7753 29.9083C38.5432 29.9959 38.2961 30.0365 38.0482 30.0279C37.8003 30.0193 37.5566 29.9616 37.3312 29.8582C37.1057 29.7547 36.9031 29.6076 36.7349 29.4252C36.5668 29.2429 36.4364 29.029 36.3515 28.796C36.2666 28.5629 36.2288 28.3154 36.2402 28.0676C36.3662 24.4593 35.2869 20.9118 33.1727 17.9851C33.0287 17.7853 32.9255 17.5592 32.869 17.3195C32.8124 17.0798 32.8036 16.8314 32.8431 16.5883C32.8825 16.3453 32.9695 16.1124 33.099 15.9029C33.2284 15.6934 33.3979 15.5115 33.5977 15.3676H33.5952ZM23.7502 27.5001C23.7502 28.4947 23.3551 29.4485 22.6519 30.1517C21.9486 30.855 20.9948 31.2501 20.0002 31.2501C19.0056 31.2501 18.0518 30.855 17.3485 30.1517C16.6453 29.4485 16.2502 28.4947 16.2502 27.5001C16.2502 26.5055 16.6453 25.5517 17.3485 24.8484C18.0518 24.1452 19.0056 23.7501 20.0002 23.7501C20.9948 23.7501 21.9486 24.1452 22.6519 24.8484C23.3551 25.5517 23.7502 26.5055 23.7502 27.5001Z" fill="#F1FDEB"/>
</svg>
