<svg width="101" height="100" viewBox="0 0 101 100" fill="none" xmlns="http://www.w3.org/2000/svg">
<path d="M50.5 37.4997L35.9166 22.9163L50.5 8.33301L65.0833 22.9163L50.5 37.4997ZM4.66663 83.333V66.6663C4.66663 64.3052 5.4826 62.3261 7.11454 60.7288C8.74649 59.1316 10.7083 58.333 13 58.333H26.6458C28.0347 58.333 29.3541 58.6802 30.6041 59.3747C31.8541 60.0691 32.8611 61.0066 33.625 62.1872C35.6388 64.8955 38.1215 67.0136 41.0729 68.5413C44.0243 70.0691 47.1666 70.833 50.5 70.833C53.9027 70.833 57.0798 70.0691 60.0312 68.5413C62.9826 67.0136 65.4305 64.8955 67.375 62.1872C68.2777 61.0066 69.3368 60.0691 70.552 59.3747C71.7673 58.6802 73.0347 58.333 74.3541 58.333H88C90.3611 58.333 92.3402 59.1316 93.9375 60.7288C95.5347 62.3261 96.3333 64.3052 96.3333 66.6663V83.333H67.1666V73.8538C64.7361 75.59 62.1145 76.9094 59.302 77.8122C56.4895 78.715 53.5555 79.1663 50.5 79.1663C47.5138 79.1663 44.5972 78.6976 41.75 77.7601C38.9027 76.8226 36.2638 75.4858 33.8333 73.7497V83.333H4.66663ZM17.1666 54.1663C13.6944 54.1663 10.743 52.9511 8.31246 50.5205C5.8819 48.09 4.66663 45.1386 4.66663 41.6663C4.66663 38.1247 5.8819 35.1559 8.31246 32.7601C10.743 30.3643 13.6944 29.1663 17.1666 29.1663C20.7083 29.1663 23.677 30.3643 26.0729 32.7601C28.4687 35.1559 29.6666 38.1247 29.6666 41.6663C29.6666 45.1386 28.4687 48.09 26.0729 50.5205C23.677 52.9511 20.7083 54.1663 17.1666 54.1663ZM83.8333 54.1663C80.3611 54.1663 77.4097 52.9511 74.9791 50.5205C72.5486 48.09 71.3333 45.1386 71.3333 41.6663C71.3333 38.1247 72.5486 35.1559 74.9791 32.7601C77.4097 30.3643 80.3611 29.1663 83.8333 29.1663C87.375 29.1663 90.3437 30.3643 92.7395 32.7601C95.1354 35.1559 96.3333 38.1247 96.3333 41.6663C96.3333 45.1386 95.1354 48.09 92.7395 50.5205C90.3437 52.9511 87.375 54.1663 83.8333 54.1663Z" fill="#38A926"/>
</svg>
