<svg width="80" height="81" viewBox="0 0 80 81" fill="none" xmlns="http://www.w3.org/2000/svg">
<rect width="80" height="81" fill="#B9B0BD"/>
<g id="Homepage Page" clip-path="url(#clip0_136_15)">
<rect width="1440" height="4051" transform="translate(-302 -3005)" fill="white"/>
<g id="Frame 2020">
<g id="Frame 215">
<g id="Frame 212">
<rect x="-121" y="-43.5" width="322" height="287" fill="#38A926"/>
<rect x="-121" y="-43.5" width="322" height="287" stroke="#DFF8D5"/>
<rect x="-121" y="-43.5" width="322" height="287" stroke="black" stroke-opacity="0.2"/>
<g id="Frame 209">
<g id="ph:student-fill">
<path id="Vector" d="M70.7906 18.1283L40.7906 8.12831C40.2774 7.95723 39.7226 7.95723 39.2094 8.12831L9.20937 18.1283C8.71158 18.2943 8.27862 18.6126 7.97182 19.0383C7.66503 19.464 7.49996 19.9755 7.5 20.5002V45.5002C7.5 46.1632 7.76339 46.7991 8.23223 47.268C8.70107 47.7368 9.33696 48.0002 10 48.0002C10.663 48.0002 11.2989 47.7368 11.7678 47.268C12.2366 46.7991 12.5 46.1632 12.5 45.5002V23.9689L22.9969 27.4658C20.208 31.9714 19.3211 37.3997 20.531 42.5586C21.741 47.7176 24.9487 52.1855 29.45 54.9814C23.825 57.1877 18.9625 61.1783 15.4062 66.6346C15.2213 66.9095 15.0928 67.2184 15.0283 67.5433C14.9638 67.8683 14.9645 68.2029 15.0304 68.5275C15.0964 68.8522 15.2262 69.1606 15.4123 69.4347C15.5984 69.7088 15.8372 69.9431 16.1147 70.1241C16.3922 70.3051 16.7029 70.4291 17.0288 70.489C17.3546 70.5489 17.6891 70.5434 18.0129 70.4728C18.3366 70.4022 18.643 70.268 18.9144 70.078C19.1858 69.888 19.4167 69.6459 19.5938 69.3658C24.3031 62.1408 31.7406 58.0002 40 58.0002C48.2594 58.0002 55.6969 62.1408 60.4062 69.3658C60.7729 69.9108 61.3393 70.2896 61.9831 70.4202C62.6268 70.5509 63.2961 70.423 63.8462 70.0642C64.3964 69.7054 64.7832 69.1444 64.9231 68.5026C65.063 67.8609 64.9447 67.1898 64.5938 66.6346C61.0375 61.1783 56.1562 57.1877 50.55 54.9814C55.047 52.1856 58.2517 47.7206 59.4614 42.5654C60.6711 37.4103 59.7871 31.9858 57.0031 27.4814L70.7906 22.8877C71.2885 22.7218 71.7216 22.4035 72.0285 21.9778C72.3354 21.5521 72.5006 21.0406 72.5006 20.5158C72.5006 19.991 72.3354 19.4795 72.0285 19.0538C71.7216 18.6281 71.2885 18.3098 70.7906 18.1439V18.1283ZM55 38.0002C55.0007 40.3716 54.4391 42.7094 53.3613 44.8218C52.2835 46.9341 50.7203 48.7608 48.7998 50.152C46.8793 51.5432 44.6564 52.4593 42.3133 52.825C39.9702 53.1907 37.5739 52.9957 35.3208 52.2559C33.0677 51.5162 31.0221 50.2527 29.3518 48.5693C27.6816 46.8859 26.4343 44.8305 25.7122 42.5716C24.9902 40.3128 24.814 37.915 25.1981 35.5749C25.5822 33.2347 26.5156 31.0191 27.9219 29.1096L39.2094 32.8596C39.7226 33.0306 40.2774 33.0306 40.7906 32.8596L52.0781 29.1096C53.9775 31.6845 55.0015 34.8005 55 38.0002Z" fill="#F7B32B" fill-opacity="0.9"/>
</g>
</g>
</g>
</g>
</g>
</g>
<defs>
<clipPath id="clip0_136_15">
<rect width="1440" height="4051" fill="white" transform="translate(-302 -3005)"/>
</clipPath>
</defs>
</svg>
