<svg width="100" height="100" viewBox="0 0 100 100" fill="none" xmlns="http://www.w3.org/2000/svg">
<path d="M50.0003 45.8337C46.5281 45.8337 43.5767 44.6184 41.1462 42.1878C38.7156 39.7573 37.5003 36.8059 37.5003 33.3337C37.5003 29.8614 38.7156 26.91 41.1462 24.4795C43.5767 22.0489 46.5281 20.8337 50.0003 20.8337C53.4725 20.8337 56.4239 22.0489 58.8545 24.4795C61.285 26.91 62.5003 29.8614 62.5003 33.3337C62.5003 36.8059 61.285 39.7573 58.8545 42.1878C56.4239 44.6184 53.4725 45.8337 50.0003 45.8337ZM50.0003 37.5003C51.1809 37.5003 52.1705 37.101 52.9691 36.3024C53.7677 35.5038 54.167 34.5142 54.167 33.3337C54.167 32.1531 53.7677 31.1635 52.9691 30.3649C52.1705 29.5663 51.1809 29.167 50.0003 29.167C48.8198 29.167 47.8302 29.5663 47.0316 30.3649C46.233 31.1635 45.8337 32.1531 45.8337 33.3337C45.8337 34.5142 46.233 35.5038 47.0316 36.3024C47.8302 37.101 48.8198 37.5003 50.0003 37.5003ZM25.0003 70.8337V62.917C25.0003 61.4587 25.3649 60.0871 26.0941 58.8024C26.8232 57.5177 27.8128 56.4934 29.0628 55.7295C32.1878 53.9239 35.4864 52.5177 38.9587 51.5107C42.4309 50.5038 46.1114 50.0003 50.0003 50.0003C53.8892 50.0003 57.5698 50.5038 61.042 51.5107C64.5142 52.5177 67.8128 53.9239 70.9378 55.7295C72.1878 56.4934 73.1774 57.5177 73.9066 58.8024C74.6357 60.0871 75.0003 61.4587 75.0003 62.917V70.8337H25.0003ZM50.0003 58.3337C47.1531 58.3337 44.3753 58.6809 41.667 59.3753C38.9587 60.0698 36.3892 61.1114 33.9587 62.5003H66.042C63.6114 61.1114 61.042 60.0698 58.3337 59.3753C55.6253 58.6809 52.8475 58.3337 50.0003 58.3337ZM88.4378 33.9587C86.285 28.8892 83.2816 24.4274 79.4274 20.5732C75.5732 16.7191 71.1114 13.7156 66.042 11.5628L69.2712 3.85449C75.3823 6.35449 80.7468 9.93088 85.3649 14.5837C89.983 19.2364 93.5767 24.6184 96.1462 30.7295L88.4378 33.9587ZM11.5628 33.9587L3.85449 30.7295C6.42394 24.6184 10.0177 19.2538 14.6357 14.6357C19.2538 10.0177 24.6184 6.42394 30.7295 3.85449L33.9587 11.5628C28.8892 13.7156 24.4274 16.7191 20.5732 20.5732C16.7191 24.4274 13.7156 28.8892 11.5628 33.9587ZM30.7295 96.1462C24.6184 93.6462 19.2538 90.0698 14.6357 85.417C10.0177 80.7642 6.42394 75.3823 3.85449 69.2712L11.5628 66.042C13.7156 71.1114 16.7191 75.5732 20.5732 79.4274C24.4274 83.2816 28.8892 86.285 33.9587 88.4378L30.7295 96.1462ZM69.2712 96.1462L66.042 88.4378C71.1114 86.285 75.5732 83.2816 79.4274 79.4274C83.2816 75.5732 86.285 71.1114 88.4378 66.042L96.1462 69.2712C93.6462 75.3823 90.0698 80.7468 85.417 85.3649C80.7642 89.983 75.3823 93.5767 69.2712 96.1462ZM50.0003 62.5003H66.042H33.9587H50.0003Z" fill="#38A926"/>
</svg>
