<svg width="101" height="100" viewBox="0 0 101 100" fill="none" xmlns="http://www.w3.org/2000/svg">
<g clip-path="url(#clip0_201_1050)">
<path d="M50.5 16.6667C48.2083 16.6667 46.2465 15.8507 44.6146 14.2188C42.9826 12.5868 42.1667 10.625 42.1667 8.33333C42.1667 6.04167 42.9826 4.07986 44.6146 2.44792C46.2465 0.815972 48.2083 0 50.5 0C52.7917 0 54.7535 0.815972 56.3854 2.44792C58.0174 4.07986 58.8333 6.04167 58.8333 8.33333C58.8333 10.625 58.0174 12.5868 56.3854 14.2188C54.7535 15.8507 52.7917 16.6667 50.5 16.6667ZM38 79.1667V29.1667C33.8333 28.8194 29.5972 28.2986 25.2917 27.6042C20.9861 26.9097 16.8889 26.0417 13 25L15.0833 16.6667C20.5 18.125 26.2639 19.184 32.375 19.8438C38.4861 20.5035 44.5278 20.8333 50.5 20.8333C56.4722 20.8333 62.5139 20.5035 68.625 19.8438C74.7361 19.184 80.5 18.125 85.9167 16.6667L88 25C84.1111 26.0417 80.0139 26.9097 75.7083 27.6042C71.4028 28.2986 67.1667 28.8194 63 29.1667V79.1667H54.6667V54.1667H46.3333V79.1667H38ZM33.8333 100C32.6528 100 31.6632 99.6007 30.8646 98.8021C30.066 98.0035 29.6667 97.0139 29.6667 95.8333C29.6667 94.6528 30.066 93.6632 30.8646 92.8646C31.6632 92.066 32.6528 91.6667 33.8333 91.6667C35.0139 91.6667 36.0035 92.066 36.8021 92.8646C37.6007 93.6632 38 94.6528 38 95.8333C38 97.0139 37.6007 98.0035 36.8021 98.8021C36.0035 99.6007 35.0139 100 33.8333 100ZM50.5 100C49.3194 100 48.3299 99.6007 47.5312 98.8021C46.7326 98.0035 46.3333 97.0139 46.3333 95.8333C46.3333 94.6528 46.7326 93.6632 47.5312 92.8646C48.3299 92.066 49.3194 91.6667 50.5 91.6667C51.6806 91.6667 52.6701 92.066 53.4688 92.8646C54.2674 93.6632 54.6667 94.6528 54.6667 95.8333C54.6667 97.0139 54.2674 98.0035 53.4688 98.8021C52.6701 99.6007 51.6806 100 50.5 100ZM67.1667 100C65.9861 100 64.9965 99.6007 64.1979 98.8021C63.3993 98.0035 63 97.0139 63 95.8333C63 94.6528 63.3993 93.6632 64.1979 92.8646C64.9965 92.066 65.9861 91.6667 67.1667 91.6667C68.3472 91.6667 69.3368 92.066 70.1354 92.8646C70.934 93.6632 71.3333 94.6528 71.3333 95.8333C71.3333 97.0139 70.934 98.0035 70.1354 98.8021C69.3368 99.6007 68.3472 100 67.1667 100Z" fill="#38A926"/>
</g>
<defs>
<clipPath id="clip0_201_1050">
<rect width="100" height="100" fill="white" transform="translate(0.5)"/>
</clipPath>
</defs>
</svg>
