<svg width="41" height="40" viewBox="0 0 41 40" fill="none" xmlns="http://www.w3.org/2000/svg">
<path d="M30.5 36.6663C29.1111 36.6663 27.9306 36.1802 26.9583 35.208C25.9861 34.2358 25.5 33.0552 25.5 31.6663C25.5 31.4719 25.5139 31.2705 25.5417 31.0622C25.5694 30.8538 25.6111 30.6663 25.6667 30.4997L13.9167 23.6663C13.4444 24.083 12.9167 24.4094 12.3333 24.6455C11.75 24.8816 11.1389 24.9997 10.5 24.9997C9.11111 24.9997 7.93056 24.5136 6.95833 23.5413C5.98611 22.5691 5.5 21.3886 5.5 19.9997C5.5 18.6108 5.98611 17.4302 6.95833 16.458C7.93056 15.4858 9.11111 14.9997 10.5 14.9997C11.1389 14.9997 11.75 15.1177 12.3333 15.3538C12.9167 15.59 13.4444 15.9163 13.9167 16.333L25.6667 9.49967C25.6111 9.33301 25.5694 9.14551 25.5417 8.93717C25.5139 8.72884 25.5 8.52745 25.5 8.33301C25.5 6.94412 25.9861 5.76356 26.9583 4.79134C27.9306 3.81912 29.1111 3.33301 30.5 3.33301C31.8889 3.33301 33.0694 3.81912 34.0417 4.79134C35.0139 5.76356 35.5 6.94412 35.5 8.33301C35.5 9.7219 35.0139 10.9025 34.0417 11.8747C33.0694 12.8469 31.8889 13.333 30.5 13.333C29.8611 13.333 29.25 13.215 28.6667 12.9788C28.0833 12.7427 27.5556 12.4163 27.0833 11.9997L15.3333 18.833C15.3889 18.9997 15.4306 19.1872 15.4583 19.3955C15.4861 19.6038 15.5 19.8052 15.5 19.9997C15.5 20.1941 15.4861 20.3955 15.4583 20.6038C15.4306 20.8122 15.3889 20.9997 15.3333 21.1663L27.0833 27.9997C27.5556 27.583 28.0833 27.2566 28.6667 27.0205C29.25 26.7844 29.8611 26.6663 30.5 26.6663C31.8889 26.6663 33.0694 27.1525 34.0417 28.1247C35.0139 29.0969 35.5 30.2775 35.5 31.6663C35.5 33.0552 35.0139 34.2358 34.0417 35.208C33.0694 36.1802 31.8889 36.6663 30.5 36.6663ZM30.5 9.99967C30.9722 9.99967 31.3681 9.83995 31.6875 9.52051C32.0069 9.20106 32.1667 8.80523 32.1667 8.33301C32.1667 7.86079 32.0069 7.46495 31.6875 7.14551C31.3681 6.82606 30.9722 6.66634 30.5 6.66634C30.0278 6.66634 29.6319 6.82606 29.3125 7.14551C28.9931 7.46495 28.8333 7.86079 28.8333 8.33301C28.8333 8.80523 28.9931 9.20106 29.3125 9.52051C29.6319 9.83995 30.0278 9.99967 30.5 9.99967ZM10.5 21.6663C10.9722 21.6663 11.3681 21.5066 11.6875 21.1872C12.0069 20.8677 12.1667 20.4719 12.1667 19.9997C12.1667 19.5275 12.0069 19.1316 11.6875 18.8122C11.3681 18.4927 10.9722 18.333 10.5 18.333C10.0278 18.333 9.63194 18.4927 9.3125 18.8122C8.99306 19.1316 8.83333 19.5275 8.83333 19.9997C8.83333 20.4719 8.99306 20.8677 9.3125 21.1872C9.63194 21.5066 10.0278 21.6663 10.5 21.6663ZM30.5 33.333C30.9722 33.333 31.3681 33.1733 31.6875 32.8538C32.0069 32.5344 32.1667 32.1386 32.1667 31.6663C32.1667 31.1941 32.0069 30.7983 31.6875 30.4788C31.3681 30.1594 30.9722 29.9997 30.5 29.9997C30.0278 29.9997 29.6319 30.1594 29.3125 30.4788C28.9931 30.7983 28.8333 31.1941 28.8333 31.6663C28.8333 32.1386 28.9931 32.5344 29.3125 32.8538C29.6319 33.1733 30.0278 33.333 30.5 33.333Z" fill="#38A926"/>
</svg>
