<svg width="41" height="40" viewBox="0 0 41 40" fill="none" xmlns="http://www.w3.org/2000/svg">
<path d="M16.3333 27.5003L28 20.0003L16.3333 12.5003V27.5003ZM7.16665 33.3337C6.24998 33.3337 5.46526 33.0073 4.81248 32.3545C4.1597 31.7017 3.83331 30.917 3.83331 30.0003V10.0003C3.83331 9.08366 4.1597 8.29894 4.81248 7.64616C5.46526 6.99338 6.24998 6.66699 7.16665 6.66699H33.8333C34.75 6.66699 35.5347 6.99338 36.1875 7.64616C36.8403 8.29894 37.1666 9.08366 37.1666 10.0003V30.0003C37.1666 30.917 36.8403 31.7017 36.1875 32.3545C35.5347 33.0073 34.75 33.3337 33.8333 33.3337H7.16665ZM7.16665 30.0003H33.8333V10.0003H7.16665V30.0003Z" fill="#38A926"/>
</svg>
