<svg width="40" height="40" viewBox="0 0 40 40" fill="none" xmlns="http://www.w3.org/2000/svg">
<path d="M15.833 27.5003L27.4997 20.0003L15.833 12.5003V27.5003ZM6.66634 33.3337C5.74967 33.3337 4.96495 33.0073 4.31217 32.3545C3.6594 31.7017 3.33301 30.917 3.33301 30.0003V10.0003C3.33301 9.08366 3.6594 8.29894 4.31217 7.64616C4.96495 6.99338 5.74967 6.66699 6.66634 6.66699H33.333C34.2497 6.66699 35.0344 6.99338 35.6872 7.64616C36.34 8.29894 36.6663 9.08366 36.6663 10.0003V30.0003C36.6663 30.917 36.34 31.7017 35.6872 32.3545C35.0344 33.0073 34.2497 33.3337 33.333 33.3337H6.66634ZM6.66634 30.0003H33.333V10.0003H6.66634V30.0003Z" fill="#38A926"/>
</svg>
