<svg width="100" height="101" viewBox="0 0 100 101" fill="none" xmlns="http://www.w3.org/2000/svg">
<path d="M49.9997 92.1663C44.2358 92.1663 38.8191 91.0726 33.7497 88.8851C28.6802 86.6976 24.2705 83.7288 20.5205 79.9788C16.7705 76.2288 13.8018 71.8191 11.6143 66.7497C9.42676 61.6802 8.33301 56.2636 8.33301 50.4997C8.33301 44.7358 9.42676 39.3191 11.6143 34.2497C13.8018 29.1802 16.7705 24.7705 20.5205 21.0205C24.2705 17.2705 28.6802 14.3018 33.7497 12.1143C38.8191 9.92676 44.2358 8.83301 49.9997 8.83301C55.7636 8.83301 61.1802 9.92676 66.2497 12.1143C71.3191 14.3018 75.7288 17.2705 79.4788 21.0205C83.2288 24.7705 86.1976 29.1802 88.3851 34.2497C90.5726 39.3191 91.6663 44.7358 91.6663 50.4997C91.6663 56.2636 90.5726 61.6802 88.3851 66.7497C86.1976 71.8191 83.2288 76.2288 79.4788 79.9788C75.7288 83.7288 71.3191 86.6976 66.2497 88.8851C61.1802 91.0726 55.7636 92.1663 49.9997 92.1663ZM37.9163 81.5413L42.9163 70.083C39.9997 69.0413 37.4823 67.4268 35.3643 65.2393C33.2462 63.0518 31.5969 60.4997 30.4163 57.583L18.958 62.3747C20.5552 66.8191 23.0205 70.708 26.3538 74.0413C29.6872 77.3747 33.5413 79.8747 37.9163 81.5413ZM30.4163 43.4163C31.5969 40.4997 33.2462 37.9476 35.3643 35.7601C37.4823 33.5726 39.9997 31.958 42.9163 30.9163L38.1247 19.458C33.6802 21.1247 29.7913 23.6247 26.458 26.958C23.1247 30.2913 20.6247 34.1802 18.958 38.6247L30.4163 43.4163ZM49.9997 62.9997C53.4719 62.9997 56.4233 61.7844 58.8538 59.3538C61.2844 56.9233 62.4997 53.9719 62.4997 50.4997C62.4997 47.0275 61.2844 44.0761 58.8538 41.6455C56.4233 39.215 53.4719 37.9997 49.9997 37.9997C46.5275 37.9997 43.5761 39.215 41.1455 41.6455C38.715 44.0761 37.4997 47.0275 37.4997 50.4997C37.4997 53.9719 38.715 56.9233 41.1455 59.3538C43.5761 61.7844 46.5275 62.9997 49.9997 62.9997ZM62.083 81.5413C66.458 79.8747 70.2948 77.392 73.5934 74.0934C76.892 70.7948 79.3747 66.958 81.0413 62.583L69.583 57.583C68.5413 60.4997 66.9441 63.017 64.7913 65.1351C62.6386 67.2532 60.1386 68.9025 57.2913 70.083L62.083 81.5413ZM69.583 43.208L81.0413 38.4163C79.3747 34.0413 76.892 30.2045 73.5934 26.9059C70.2948 23.6073 66.458 21.1247 62.083 19.458L57.2913 31.1247C60.1386 32.1663 62.6038 33.7462 64.6872 35.8643C66.7705 37.9823 68.4025 40.4302 69.583 43.208Z" fill="#38A926"/>
</svg>
