<svg width="30" height="34" viewBox="0 0 30 34" fill="none" xmlns="http://www.w3.org/2000/svg">
<path d="M3.33333 34.0003C2.41667 34.0003 1.63194 33.6739 0.979167 33.0212C0.326389 32.3684 0 31.5837 0 30.667V7.33366C0 6.41699 0.326389 5.63227 0.979167 4.97949C1.63194 4.32671 2.41667 4.00033 3.33333 4.00033H10.3333C10.6944 3.00033 11.2986 2.19477 12.1458 1.58366C12.9931 0.972548 13.9444 0.666992 15 0.666992C16.0556 0.666992 17.0069 0.972548 17.8542 1.58366C18.7014 2.19477 19.3056 3.00033 19.6667 4.00033H26.6667C27.5833 4.00033 28.3681 4.32671 29.0208 4.97949C29.6736 5.63227 30 6.41699 30 7.33366V30.667C30 31.5837 29.6736 32.3684 29.0208 33.0212C28.3681 33.6739 27.5833 34.0003 26.6667 34.0003H3.33333ZM3.33333 30.667H26.6667V7.33366H3.33333V30.667ZM6.66667 27.3337H18.3333V24.0003H6.66667V27.3337ZM6.66667 20.667H23.3333V17.3337H6.66667V20.667ZM6.66667 14.0003H23.3333V10.667H6.66667V14.0003ZM15 6.08366C15.3611 6.08366 15.6597 5.9656 15.8958 5.72949C16.1319 5.49338 16.25 5.19477 16.25 4.83366C16.25 4.47255 16.1319 4.17394 15.8958 3.93783C15.6597 3.70171 15.3611 3.58366 15 3.58366C14.6389 3.58366 14.3403 3.70171 14.1042 3.93783C13.8681 4.17394 13.75 4.47255 13.75 4.83366C13.75 5.19477 13.8681 5.49338 14.1042 5.72949C14.3403 5.9656 14.6389 6.08366 15 6.08366Z" fill="black"/>
</svg>
