<svg width="64" height="81" viewBox="0 0 64 81" fill="none" xmlns="http://www.w3.org/2000/svg">
<path d="M28.9657 1.35541C30.7985 0.214863 33.1977 0.214863 35.0304 1.35541L37.9961 3.18342C38.9958 3.79275 40.162 4.08961 41.345 4.02711L44.8938 3.824C47.0931 3.69901 49.1591 4.82393 50.1421 6.66756L51.7415 9.65173C52.2747 10.6517 53.1411 11.4485 54.1907 11.9485L57.4063 13.464C59.3724 14.3858 60.572 16.3232 60.4387 18.3855L60.2221 21.7134C60.1554 22.8227 60.472 23.932 61.1218 24.8538L63.0878 27.6349C64.3041 29.3535 64.3041 31.6034 63.0878 33.322L61.1218 36.1187C60.472 37.0562 60.1554 38.1498 60.2221 39.2591L60.4387 42.587C60.572 44.6494 59.3724 46.5868 57.4063 47.5086L54.2241 49.0085C53.1577 49.5085 52.308 50.3209 51.7749 51.3052L50.1587 54.3206C49.1757 56.1643 47.1097 57.2892 44.9105 57.1642L41.3616 56.9611C40.1787 56.8986 38.9958 57.1955 38.0127 57.8048L35.0471 59.6484C33.2143 60.789 30.8151 60.789 28.9824 59.6484L26 57.8048C25.0004 57.1955 23.8341 56.8986 22.6511 56.9611L19.1023 57.1642C16.903 57.2892 14.8371 56.1643 13.854 54.3206L12.2546 51.3365C11.7214 50.3365 10.855 49.5397 9.80538 49.0397L6.58978 47.5242C4.62376 46.6024 3.42416 44.665 3.55745 42.6027L3.77404 39.2748C3.84069 38.1655 3.52412 37.0562 2.87434 36.1343L0.924982 33.3377C-0.291283 31.619 -0.291283 29.3692 0.924982 27.6505L2.87434 24.8695C3.52412 23.932 3.84069 22.8384 3.77404 21.7291L3.55745 18.4012C3.42416 16.3388 4.62376 14.4014 6.58978 13.4796L9.77206 11.9797C10.8384 11.4641 11.7048 10.6517 12.2379 9.65173L13.8374 6.66756C14.8204 4.82393 16.8864 3.69901 19.0857 3.824L22.6345 4.02711C23.8174 4.08961 25.0004 3.79275 25.9834 3.18342L28.9657 1.35541ZM45.327 30.4941C45.327 27.1791 43.9227 23.9999 41.423 21.6559C38.9234 19.3118 35.5331 17.9949 31.9981 17.9949C28.463 17.9949 25.0727 19.3118 22.5731 21.6559C20.0734 23.9999 18.6691 27.1791 18.6691 30.4941C18.6691 33.8091 20.0734 36.9883 22.5731 39.3323C25.0727 41.6764 28.463 42.9933 31.9981 42.9933C35.5331 42.9933 38.9234 41.6764 41.423 39.3323C43.9227 36.9883 45.327 33.8091 45.327 30.4941ZM0.225213 69.5228L7.40618 53.5082C7.4395 53.5238 7.45616 53.5394 7.47282 53.5707L9.07229 56.5549C11.0216 60.1796 15.0703 62.3826 19.4022 62.1482L22.951 61.9451C22.9844 61.9451 23.0344 61.9451 23.0677 61.9764L26.0334 63.82C26.8831 64.3356 27.7828 64.7418 28.7158 65.0231L22.4512 78.9753C22.068 79.8346 21.2183 80.4127 20.2353 80.4908C19.2523 80.5689 18.3026 80.147 17.7694 79.3659L12.4045 71.6632L3.05761 72.96C2.10792 73.085 1.15824 72.7257 0.558436 72.0226C-0.0413656 71.3195 -0.157994 70.3508 0.208552 69.5228H0.225213ZM41.5449 78.9596L35.2803 65.0231C36.2133 64.7418 37.113 64.3512 37.9628 63.82L40.9284 61.9764C40.9618 61.9608 40.9951 61.9451 41.0451 61.9451L44.5939 62.1482C48.9258 62.3826 52.9745 60.1796 54.9238 56.5549L56.5233 53.5707C56.54 53.5394 56.5566 53.5238 56.5899 53.5082L63.7876 69.5228C64.1541 70.3508 64.0208 71.3039 63.4377 72.0226C62.8545 72.7413 61.8882 73.1006 60.9385 72.96L51.5916 71.6632L46.2267 79.3502C45.6935 80.1314 44.7439 80.5533 43.7608 80.4752C42.7778 80.397 41.9281 79.8033 41.5449 78.9596Z" fill="#F7B32B" fill-opacity="0.9"/>
</svg>
