<svg width="88" height="86" viewBox="0 0 88 86" fill="none" xmlns="http://www.w3.org/2000/svg">
<path d="M62.667 46.1663L45.3753 29.2913C43.2225 27.208 41.3996 24.899 39.9066 22.3643C38.4135 19.8295 37.667 17.0691 37.667 14.083C37.667 10.2636 39.0038 7.01704 41.6774 4.34342C44.351 1.66981 47.5975 0.333008 51.417 0.333008C53.6392 0.333008 55.7225 0.801758 57.667 1.73926C59.6114 2.67676 61.2781 3.94412 62.667 5.54134C64.0559 3.94412 65.7225 2.67676 67.667 1.73926C69.6114 0.801758 71.6948 0.333008 73.917 0.333008C77.7364 0.333008 80.983 1.66981 83.6566 4.34342C86.3302 7.01704 87.667 10.2636 87.667 14.083C87.667 17.0691 86.9378 19.8295 85.4795 22.3643C84.0212 24.899 82.2156 27.208 80.0628 29.2913L62.667 46.1663ZM62.667 34.4997L74.0212 23.3538C75.3406 22.0344 76.5559 20.6281 77.667 19.1351C78.7781 17.642 79.3337 15.958 79.3337 14.083C79.3337 12.5552 78.8128 11.2705 77.7712 10.2288C76.7295 9.18717 75.4448 8.66634 73.917 8.66634C72.9448 8.66634 72.0246 8.85731 71.1566 9.23926C70.2885 9.6212 69.542 10.1941 68.917 10.958L62.667 18.458L56.417 10.958C55.792 10.1941 55.0455 9.6212 54.1774 9.23926C53.3094 8.85731 52.3892 8.66634 51.417 8.66634C49.8892 8.66634 48.6045 9.18717 47.5628 10.2288C46.5212 11.2705 46.0003 12.5552 46.0003 14.083C46.0003 15.958 46.5559 17.642 47.667 19.1351C48.7781 20.6281 49.9934 22.0344 51.3128 23.3538L62.667 34.4997ZM25.167 69.083L54.1253 76.9997L78.917 69.2913C78.5698 68.6663 78.0663 68.1281 77.4066 67.6768C76.7468 67.2254 76.0003 66.9997 75.167 66.9997H54.1253C52.2503 66.9997 50.7573 66.9302 49.6462 66.7913C48.535 66.6525 47.3892 66.3747 46.2087 65.958L36.5212 62.7288L38.8128 54.6038L47.2503 57.4163C48.4309 57.7636 49.8198 58.0413 51.417 58.2497C53.0142 58.458 55.3753 58.5969 58.5003 58.6663C58.5003 57.9025 58.2746 57.1733 57.8232 56.4788C57.3719 55.7844 56.8337 55.333 56.2087 55.1247L31.8337 46.1663H25.167V69.083ZM0.166992 83.6663V37.833H31.8337C32.3198 37.833 32.8059 37.8851 33.292 37.9893C33.7781 38.0934 34.2295 38.215 34.6462 38.3538L59.1253 47.4163C61.417 48.2497 63.2746 49.708 64.6982 51.7913C66.1218 53.8747 66.8337 56.1663 66.8337 58.6663H75.167C78.6392 58.6663 81.5906 59.8122 84.0212 62.1038C86.4517 64.3955 87.667 67.4163 87.667 71.1663V75.333L54.3337 85.7497L25.167 77.6247V83.6663H0.166992ZM8.50033 75.333H16.8337V46.1663H8.50033V75.333Z" fill="#38A926"/>
</svg>
